<svg id="레이어_1" data-name="레이어 1" xmlns="http://www.w3.org/2000/svg" viewBox="0 0 100 39.62"><defs><linearGradient id="무제_그라디언트_46" x1="52.03" y1="25.48" x2="52.03" y2="1.58" gradientUnits="userSpaceOnUse"><stop offset="0" stop-color="#367fa3"/><stop offset="1" stop-color="#231815"/></linearGradient><linearGradient id="무제_그라디언트_43" x1="56.47" y1="26.65" x2="56.47" y2="1.5" gradientUnits="userSpaceOnUse"><stop offset="0" stop-color="#3683ac"/><stop offset="1" stop-color="#231815"/></linearGradient><style>.cls-1{fill:#231815}</style></defs><path class="cls-1" d="M72.09 33.54c.08-.16.15-.32.23-.49a.18.18 0 01.12-.07h.16a.7.7 0 01.24 0s.06 0 .06.12a.11.11 0 010 .05c-.1.26-.21.52-.32.77l-.32.77c.26.62.52 1.25.78 1.9s.52 1.28.78 1.9c.1-.23.2-.49.32-.78l.37-.91.4-1c.13-.33.26-.66.4-1s.25-.64.38-.94l.33-.84a.19.19 0 01.08-.07h.51a.12.12 0 010 .1v.05l-2.55 6.2a.12.12 0 01-.07.07.21.21 0 01-.12 0h-.17a.16.16 0 01-.12 0 .09.09 0 010-.09l-.8-1.92c-.27-.64-.53-1.28-.8-1.93l-.36.88c-.13.3-.25.6-.38.91s-.25.6-.37.91l-.36.88-.13.3c0 .07-.1.1-.2.1H70a.19.19 0 01-.12 0 .11.11 0 010-.09l-2.65-6.12v-.08a.12.12 0 01.09-.13h.23a.55.55 0 01.18 0 .14.14 0 01.12.09c.1.25.21.53.34.83l.38.94c.13.32.27.65.4 1l.4 1c.14.32.26.62.38.91l.33.79c.22-.53.48-1.17.78-1.93s.65-1.62 1-2.58zm11.17 4.92v-.39a2.83 2.83 0 01-.5.64 2.73 2.73 0 01-.64.49 3 3 0 01-.76.31 3.2 3.2 0 01-.83.11 3.26 3.26 0 01-1.7-.47 3.35 3.35 0 01-1.22-1.22 3.81 3.81 0 01-.35-.8 3.37 3.37 0 01-.12-.9 3.3 3.3 0 01.12-.89 3.67 3.67 0 01.35-.81 3.56 3.56 0 011.22-1.22 3.38 3.38 0 011.7-.46 2.91 2.91 0 01.83.11 3 3 0 01.76.31 3.36 3.36 0 01.65.49 3.5 3.5 0 01.51.64v-1.26c0-.11 0-.17.16-.17h.26c.12 0 .18.06.18.17v6.19a.15.15 0 01-.06.13.28.28 0 01-.13 0h-.21c-.14 0-.2-.07-.2-.19zm0-2.22a2.6 2.6 0 00-.23-1.07 2.77 2.77 0 00-.61-.89 2.84 2.84 0 00-.88-.61 2.78 2.78 0 00-1.07-.24 2.51 2.51 0 00-1 .23 3 3 0 00-.87.61 3 3 0 00-.6.89 2.6 2.6 0 00-.22 1.07A2.8 2.8 0 0078 37.3a2.87 2.87 0 00.59.9 2.83 2.83 0 00.86.62 2.6 2.6 0 001.07.23 2.65 2.65 0 001.08-.23 3 3 0 00.9-.6 3.08 3.08 0 00.6-.9 2.65 2.65 0 00.19-1.08zm2.15-5.08a.15.15 0 01.16-.16h.27c.12 0 .17.06.17.16v8.18a.14.14 0 01-.16.16h-.27a.15.15 0 01-.17-.16zm2.25 0a.15.15 0 01.17-.16h.26c.12 0 .17.06.17.16v8.18a.14.14 0 01-.16.16h-.27a.15.15 0 01-.17-.16zm2.55 5.3v.23a1.26 1.26 0 000 .28 3.22 3.22 0 00.38.84 2.87 2.87 0 00.6.65 2.71 2.71 0 001.67.59 4.06 4.06 0 00.51 0 2.83 2.83 0 00.44-.12 2.64 2.64 0 00.38-.18 2.12 2.12 0 00.35-.23l.11-.07.1-.08.1-.07a.13.13 0 01.08 0s.06 0 .09.07l.13.19a.34.34 0 010 .1.14.14 0 010 .06l-.14.15a1.57 1.57 0 01-.19.15 3.48 3.48 0 01-.9.46 3.06 3.06 0 01-1.06.17 3.19 3.19 0 01-1.31-.26 3.49 3.49 0 01-1.08-.73 3.45 3.45 0 01-.73-1.07 3.23 3.23 0 01-.27-1.31 3.37 3.37 0 01.12-.9 3.21 3.21 0 01.33-.81 3.9 3.9 0 01.52-.69 4 4 0 01.69-.53A3.23 3.23 0 0192 33a3.46 3.46 0 01.92-.12 3.49 3.49 0 011.66.42 3.36 3.36 0 01.68.51 2.86 2.86 0 01.52.67 3.24 3.24 0 01.35.83 3.78 3.78 0 01.15 1c0 .12 0 .18-.16.18zm2-2.91a2.66 2.66 0 00-.73.32 3.1 3.1 0 00-.61.53 3.37 3.37 0 00-.44.67 2.71 2.71 0 00-.24.78h5.51a2.42 2.42 0 00-.31-1 2.7 2.7 0 00-.61-.77 3 3 0 00-.84-.5 2.81 2.81 0 00-1-.19h-.34a2.72 2.72 0 00-.37.16zm7.1 5.7a.2.2 0 010 .07v.11a.09.09 0 010 .08.19.19 0 01-.09 0H99a1.77 1.77 0 01-.52-.07 1.07 1.07 0 01-.44-.22 1 1 0 01-.3-.4 1.57 1.57 0 01-.11-.6v-4.7h-.89a.17.17 0 01-.13 0v-.48a.23.23 0 01.13 0h.89v-1.7a.09.09 0 010-.08h.3a.17.17 0 01.14.05.29.29 0 010 .14V33h1.16c.11 0 .17.05.17.16v.21c0 .12-.06.18-.17.18h-1.01v4.78a1.67 1.67 0 00.07.35.61.61 0 00.17.24.37.37 0 00.28.09h.36a.32.32 0 01.13 0 .14.14 0 010 .09.49.49 0 010 .12zM8 8.62a.58.58 0 01.41.13.51.51 0 01.15.41v.49a.6.6 0 01-.15.44.54.54 0 01-.41.15H4.68v15.62a.54.54 0 01-.16.42.55.55 0 01-.39.14h-.71c-.34 0-.51-.19-.51-.56V10.24H.55a.56.56 0 01-.41-.15.64.64 0 01-.14-.44v-.49a.55.55 0 01.14-.41.59.59 0 01.41-.13h2.36V5.53a6.13 6.13 0 01.41-2.28 5.06 5.06 0 011.12-1.74A4.71 4.71 0 016.14.39 5.77 5.77 0 018.28 0a.61.61 0 01.45.16.6.6 0 01.15.42v.65a.47.47 0 01-.16.39.55.55 0 01-.38.13A3.84 3.84 0 006.9 2a3.13 3.13 0 00-1.16.81A3.87 3.87 0 005 4.2a6.08 6.08 0 00-.28 2v2.42zm22.93 1.58a.23.23 0 01-.17.07.69.69 0 01-.25-.06 1.72 1.72 0 01-.38-.23 5.63 5.63 0 00-.76-.46 9.84 9.84 0 00-.92-.45 7.11 7.11 0 00-1-.34 4.11 4.11 0 00-1-.13 5.85 5.85 0 00-2.17.4 5.31 5.31 0 00-1.83 1.17 5.4 5.4 0 00-1.23 1.86 6.17 6.17 0 00-.46 2.44V26c0 .31-.16.47-.49.47h-.81c-.34 0-.51-.16-.51-.47V7.53c0-.28.15-.41.43-.41h.82a.54.54 0 01.42.16.54.54 0 01.14.4v2.5A6.35 6.35 0 0121.61 9a6 6 0 011.22-1 7 7 0 011.58-.76 5.85 5.85 0 011.86-.29 9.79 9.79 0 011.48.05 7.37 7.37 0 011.25.33 7.49 7.49 0 011.19.54 10.45 10.45 0 011.13.78 3.45 3.45 0 01.28.26.47.47 0 01.12.32c0 .09-.09.23-.26.42a7.47 7.47 0 01-.53.55zm3.48 12.17a1.21 1.21 0 010-.14.62.62 0 010-.13.37.37 0 01.11-.29 1.14 1.14 0 01.27-.17l.6-.26h.23a.28.28 0 01.22.13 2.53 2.53 0 01.16.33q.08.2.15.42a2.42 2.42 0 00.16.39 3.3 3.3 0 00.84 1.1 5.4 5.4 0 001.2.76 6.55 6.55 0 001.31.45 6.26 6.26 0 001.22.14 7.24 7.24 0 001.56-.2 5.88 5.88 0 001.56-.69 4 4 0 001.28-1.16 2.91 2.91 0 00.52-1.76 2.78 2.78 0 00-.46-1.62 4.08 4.08 0 00-1.18-1.16 6.75 6.75 0 00-1.62-.78 15.17 15.17 0 00-1.8-.51 14.07 14.07 0 01-2.19-.73 8.21 8.21 0 01-1.87-1.12 5.14 5.14 0 01-1.3-1.5 3.72 3.72 0 01-.49-1.87 5.32 5.32 0 01.43-2.19 4.72 4.72 0 011.24-1.68A5.48 5.48 0 0138.47 7 7.84 7.84 0 0141 6.64a7 7 0 012 .28 5.88 5.88 0 011.69.81A5.56 5.56 0 0146 9a7.36 7.36 0 01.92 1.65.45.45 0 01.09.23.41.41 0 01-.12.27 1.91 1.91 0 01-.62.4.78.78 0 01-.26.06.48.48 0 01-.26-.06.53.53 0 01-.16-.17c0-.07-.09-.16-.14-.27a2.69 2.69 0 00-.17-.34 5.06 5.06 0 00-1.72-1.69 4.85 4.85 0 00-2.61-.67 5.85 5.85 0 00-1.58.21 4 4 0 00-1.37.64 3 3 0 00-.94 1.1 3.32 3.32 0 00-.34 1.56 2.15 2.15 0 00.46 1.36 4.4 4.4 0 001.14 1 7.34 7.34 0 001.46.72 12.3 12.3 0 001.43.43h.2a13.51 13.51 0 012.54.83 8 8 0 012 1.22 5.15 5.15 0 011.26 1.62 4.75 4.75 0 01.44 2.06 4.92 4.92 0 01-.55 2.36 5.36 5.36 0 01-1.5 1.75 7 7 0 01-2.18 1.09 8.8 8.8 0 01-2.58.37 8.25 8.25 0 01-2.18-.29 6.5 6.5 0 01-1.89-.86 5.68 5.68 0 01-1.46-1.39 5.23 5.23 0 01-.9-1.82z"/><path d="M59.67 16.75a9.89 9.89 0 01.33-2.67 10.1 10.1 0 011-2.41 9.78 9.78 0 011.58-2 10.12 10.12 0 012-1.58 10 10 0 017.72-1 10.2 10.2 0 012.4 1 10.78 10.78 0 012 1.58 10.08 10.08 0 012.6 4.45 9.89 9.89 0 01.36 2.67 9.76 9.76 0 01-.36 2.66 9.93 9.93 0 01-1 2.41 10.12 10.12 0 01-1.58 2 10.39 10.39 0 01-2 1.58 10.2 10.2 0 01-2.4 1 10.1 10.1 0 01-11.34-4.64 9.93 9.93 0 01-1-2.41 9.76 9.76 0 01-.31-2.64zm1.84 0a7.89 7.89 0 00.29 2.17 8.36 8.36 0 00.82 2 8.47 8.47 0 001.27 1.7 8.15 8.15 0 001.66 1.33 8.51 8.51 0 002 .86 7.74 7.74 0 002.17.3 7.94 7.94 0 003.21-.65 8.14 8.14 0 002.64-1.78A8.32 8.32 0 0077.32 20a8 8 0 00.68-3.23 8.19 8.19 0 00-.65-3.21 8.53 8.53 0 00-1.75-2.67A8.31 8.31 0 0073 9.06a7.54 7.54 0 00-3.2-.69 8 8 0 00-3.24.63 8.21 8.21 0 00-2.63 1.82 8.48 8.48 0 00-1.77 2.66 8.13 8.13 0 00-.65 3.26zm22.37-9.14a.58.58 0 01.12-.43.64.64 0 01.46-.18h.62a.51.51 0 01.42.16.58.58 0 01.15.41v2.29a6.5 6.5 0 011.48-1.63 7.33 7.33 0 011.71-1 7.56 7.56 0 011.72-.49 10 10 0 011.57-.13 7.85 7.85 0 013.22.64A7.43 7.43 0 0197.84 9a8.08 8.08 0 011.59 2.6 8.84 8.84 0 01.57 3.2v11a.69.69 0 01-.17.5.57.57 0 01-.44.17h-.56a.59.59 0 01-.47-.15.83.83 0 01-.12-.51v-11a7.34 7.34 0 00-.48-2.34 6.71 6.71 0 00-1.21-2A5.89 5.89 0 0094.63 9 6 6 0 0092 8.4a6.36 6.36 0 00-2.31.44 6.64 6.64 0 00-2 1.23A6.48 6.48 0 0086.25 12a5.82 5.82 0 00-.6 2.44v11.49c0 .33-.16.49-.46.49h-.81a.43.43 0 01-.48-.49v-4.25a.51.51 0 010-.16z" fill="#367fa3"/><path class="cls-1" d="M14.91.91a.41.41 0 00-.37-.22h-1.12a.39.39 0 00-.35.22 1.24 1.24 0 00-.08.47v.78a.42.42 0 00.17.39 1.12 1.12 0 00.56.1h.56a1 1 0 00.56-.12A.8.8 0 0015 2v-.62a1.33 1.33 0 00-.09-.47zM13.08 9.5v16.43c0 .33.17.49.52.49h.8c.32 0 .47-.16.47-.49V7.38q-.06-.24-.36-.18l-.69.15a1.64 1.64 0 00-.65.34L11 9.11a3 3 0 00-.26.28.71.71 0 00-.08.36v.72q0 .33.33.27a.82.82 0 00.24-.1l1.85-1.14"/><path d="M53.8 1.67l-.29.12-.1.05-.14.08a.29.29 0 00-.12.24V7H50.5a.68.68 0 00-.39.09.44.44 0 00-.12.36v.72a.5.5 0 00.12.37.61.61 0 00.39.1h2.65V22.8a4.32 4.32 0 00.33 1.78 3.15 3.15 0 00.6.9V1.58z" fill="url(#무제_그라디언트_46)"/><path d="M58.35 7h-3.44V2.07a.8.8 0 00-.09-.41.44.44 0 00-.41-.16.84.84 0 00-.26.06h-.07v23.9a2.72 2.72 0 00.29.3 3.5 3.5 0 001.3.67 6.22 6.22 0 001.58.2h.25a1.55 1.55 0 00.31-.06.71.71 0 00.26-.13.28.28 0 00.11-.22v-.32a1 1 0 000-.23 2 2 0 000-.36.4.4 0 00-.16-.26.91.91 0 00-.38-.15 3.28 3.28 0 00-.71-.06h-.36a1.27 1.27 0 01-.85-.26 1.69 1.69 0 01-.48-.72 4.06 4.06 0 01-.24-.99c0-.4-.06-.83-.06-1.28v-13h3.44a.46.46 0 00.51-.53v-.58a.44.44 0 00-.54-.48z" fill="url(#무제_그라디언트_43)"/></svg>