<svg version="1.1" id="Capa_1" xmlns="http://www.w3.org/2000/svg" x="0" y="0" viewBox="0 0 512 512" xml:space="preserve"><style>.st2,.st3{fill-rule:evenodd;clip-rule:evenodd;fill:#c38c66}.st3{fill:#9f6e50}</style><path d="M7.5 474.6c0 16.4 13.5 29.9 29.9 29.9h403c27.1 0 36.7-13.2 36.7-36.7V211.5H7.5v263.1z" fill-rule="evenodd" clip-rule="evenodd" fill="#ecbd83"/><path d="M411.3 504.5h29.1c27.1 0 36.7-13.2 36.7-36.7V211.5H448v256.3c0 23.5-9.6 36.7-36.7 36.7z" fill-rule="evenodd" clip-rule="evenodd" fill="#e2a975"/><path class="st2" d="M37.4 181.6h432.4c5.2 0 7.3 2.6 7.3 7.3v52.6H37.4C21 241.5 7.5 228 7.5 211.6c0-16.5 13.4-30 29.9-30z"/><path class="st3" d="M440.7 181.6h29.1c5.2 0 7.3 2.6 7.3 7.3v52.6H448v-52.6c0-4.6-2.1-7.3-7.3-7.3z"/><path class="st2" d="M361 316.7h124.1c10.7 0 19.4 8.7 19.4 19.4v64.1c0 10.7-8.8 19.4-19.4 19.4H361c-10.7 0-19.4-8.7-19.4-19.4v-64.1c0-10.7 8.7-19.4 19.4-19.4z"/><path class="st3" d="M456 316.7h29.1c10.7 0 19.4 8.7 19.4 19.4v64.1c0 10.7-8.8 19.4-19.4 19.4H456c10.7 0 19.4-8.7 19.4-19.4v-64.1c0-10.7-8.8-19.4-19.4-19.4zm-58.2 71.4c11 0 19.9-9 19.9-19.9 0-11-9-20-19.9-20-11 0-20 9-20 20 .1 10.9 9 19.9 20 19.9z"/><path d="M242.3 7.5c64.6 0 117 52.4 117 117 0 34.6-15 65.7-38.9 87.1H164.2c-23.9-21.4-38.9-52.5-38.9-87.1.1-64.6 52.4-117 117-117z" fill-rule="evenodd" clip-rule="evenodd" fill="#ffedb5"/><path d="M242.3 7.5c64.6 0 117 52.4 117 117 0 34.6-15 65.7-38.9 87.1h-24.3c23.8-21.4 38.9-52.5 38.9-87.1C335 64 289 14.2 230.1 8.2c4.1-.5 8.1-.7 12.2-.7z" fill-rule="evenodd" clip-rule="evenodd" fill="#ffe18c"/><path d="M222.4 64.8V57c0-4.1 3.4-7.5 7.5-7.5s7.5 3.4 7.5 7.5v7.8h15.1V57c0-4.1 3.4-7.5 7.5-7.5s7.5 3.4 7.5 7.5v8.8c4.9 1.3 9.4 3.9 12.9 7.4 5.2 5.2 8.5 12.4 8.5 20.3 0 8.1-3.5 15.8-9.5 21.2 6 5.4 9.5 13.1 9.5 21.2 0 7.9-3.3 15.1-8.5 20.3-3.5 3.5-8 6.1-12.9 7.5v8.8c0 4.1-3.3 7.5-7.5 7.5-4.1 0-7.5-3.4-7.5-7.5v-7.8h-15.1v7.8c0 4.1-3.3 7.5-7.5 7.5-4.1 0-7.5-3.4-7.5-7.5v-7.8h-19.1c-4.1 0-7.5-3.3-7.5-7.5 0-4.1 3.3-7.5 7.5-7.5h6.1v-70h-6.1c-4.1 0-7.5-3.4-7.5-7.5s3.3-7.5 7.5-7.5c6.3.1 12.7.1 19.1.1zm27.4-49.5v11.3c0 4.1-3.4 7.5-7.5 7.5s-7.5-3.4-7.5-7.5V15.3c-24.2 1.6-46.3 11.2-63.7 26.1l8.2 8.2c2.9 2.9 2.9 7.7 0 10.6-2.9 2.9-7.7 2.9-10.6 0l-8.3-8.3c-15.3 17.3-25.3 39.4-27.2 63.8h12.6c4.1 0 7.5 3.3 7.5 7.5 0 4.1-3.3 7.5-7.5 7.5H133c.7 13.7 4 26.6 9.3 38.5 4.3 9.7 10 18.6 16.8 26.6l9.7-9.6c2.9-2.9 7.7-2.9 10.6 0 2.9 2.9 2.9 7.7 0 10.6L172 204h140.7l-7.4-7.4c-2.9-2.9-2.9-7.7 0-10.6 2.9-2.9 7.7-2.9 10.6 0l9.6 9.6c6.8-8 12.5-16.9 16.9-26.6 5.3-11.8 8.5-24.8 9.2-38.5h-12.8c-4.1 0-7.5-3.3-7.5-7.5s3.4-7.5 7.5-7.5h12.6c-2-24.4-11.9-46.5-27.3-63.8l-8.3 8.3c-2.9 2.9-7.7 2.9-10.6 0-2.9-2.9-2.9-7.7 0-10.6l8.2-8.2c-17.3-14.8-39.3-24.3-63.6-25.9zM242.3 0c34.4 0 65.5 13.9 88 36.5 22.5 22.5 36.5 53.7 36.5 88 0 17.6-3.7 34.4-10.3 49.7h120.7c4.1 0 7.5 3.4 7.5 7.5v127.5c7.5 0 14.2 2.6 19.5 7.9 4.9 4.9 7.9 11.6 7.9 19v15c0 4.1-3.3 7.5-7.5 7.5-4.1 0-7.5-3.4-7.5-7.5v-15c0-3.3-1.3-6.3-3.5-8.4s-5.1-3.5-8.4-3.5H361c-3.3 0-6.3 1.4-8.4 3.5s-3.5 5.1-3.5 8.4v64.1c0 3.3 1.3 6.2 3.5 8.4s5.2 3.5 8.4 3.5h124.1c3.3 0 6.3-1.4 8.4-3.5s3.5-5.1 3.5-8.4v-15.1c0-4.1 3.4-7.5 7.5-7.5s7.5 3.4 7.5 7.5v15.1c0 7.4-3 14.1-7.9 19-5.3 5.3-12 7.9-19.5 7.9v40.7c0 13.6-3 24.5-10.2 32.3-7.2 7.8-18.2 11.9-34 11.9H255.9c-4.1 0-7.5-3.3-7.5-7.5 0-4.1 3.4-7.5 7.5-7.5h184.5c11.3 0 18.7-2.5 23-7.1 4.3-4.7 6.2-12.2 6.2-22.1v-40.7H361c-7.4 0-14.1-3-19-7.9s-7.9-11.6-7.9-19v-64.1c0-7.4 3-14.1 7.9-19s11.6-7.9 19-7.9h108.7V249H37.4c-8.4 0-16.2-2.8-22.4-7.5v233.2c0 6.2 2.5 11.7 6.6 15.8 4.1 4.1 9.7 6.6 15.8 6.6h184.5c4.1 0 7.5 3.4 7.5 7.5s-3.4 7.5-7.5 7.5H37.4c-10.3 0-19.6-4.2-26.4-11-6.8-6.8-11-16.1-11-26.4V211.6c0-10.3 4.2-19.6 11-26.4 6.8-6.8 16.1-11 26.4-11h90.7c-6.6-15.3-10.3-32-10.3-49.7 0-34.4 13.9-65.5 36.5-88C176.8 13.9 208 0 242.3 0zm106.4 189.1c-3.2 5.2-6.7 10.2-10.7 14.9h109.2c4.2 0 7.5 3.4 7.5 7.5s-3.3 7.5-7.5 7.5H37.4c-4.1 0-7.5-3.3-7.5-7.5 0-4.1 3.4-7.5 7.5-7.5h109.2c-3.9-4.7-7.5-9.7-10.7-14.9H37.4c-6.2 0-11.8 2.5-15.8 6.6-4.1 4.1-6.6 9.7-6.6 15.8s2.5 11.7 6.6 15.8c4.1 4.1 9.7 6.6 15.8 6.6h432.2v-44.8H348.7zm49.1 151.6c7.6 0 14.4 3.1 19.4 8 5 5 8.1 11.8 8.1 19.4 0 7.6-3.1 14.4-8.1 19.4-5 5-11.8 8.1-19.4 8.1-7.6 0-14.5-3.1-19.4-8.1-5-5-8.1-11.8-8.1-19.4 0-7.6 3.1-14.5 8.1-19.4 5-4.9 11.9-8 19.4-8zm8.8 18.6c-2.2-2.2-5.4-3.7-8.8-3.7-3.5 0-6.6 1.4-8.8 3.7-2.2 2.3-3.7 5.4-3.7 8.8 0 3.4 1.4 6.5 3.7 8.8 2.2 2.3 5.4 3.7 8.8 3.7 3.4 0 6.5-1.4 8.8-3.7 2.3-2.2 3.7-5.4 3.7-8.8 0-3.4-1.4-6.5-3.7-8.8zM260 122.3h-35.7v27.5H260c3.8 0 7.3-1.6 9.8-4.1 2.5-2.5 4.1-5.9 4.1-9.7 0-3.8-1.6-7.2-4.1-9.7-2.5-2.5-6-4-9.8-4zm0-42.5h-35.7v27.5H260c3.8 0 7.3-1.5 9.8-4 2.5-2.5 4.1-5.9 4.1-9.7 0-3.8-1.6-7.2-4.1-9.7-2.5-2.5-6-4.1-9.8-4.1z"/><path fill="#ffedb5" d="M191.6 46.1h101v138.3h-101z"/><path d="M302.4 77c-2.7-4.3-6.8-5.9-11.8-5.9h-49.9c-16.5 0-33.1.1-49.6 0-5.4 0-10 1.4-12.8 6.4-2.8 4.9-1.7 9.6 1.1 14.2 20.1 32.8 40.1 65.5 60.1 98.3 2.3 3.7 2.6 3.7 4.8-.1 10.1-17.3 20.2-34.6 30.2-51.9 9.1-15.7 18.2-31.4 27.4-47.1 2.8-4.6 3.4-9.2.5-13.9zm-64.1 96.9c-1.4-.6-1.8-1.9-2.4-2.9-16.7-27.3-33.3-54.5-50-81.8-.5-.8-1.1-1.7-1.5-2.6-2.1-4.3 0-8.4 4.8-8.7 3.5-.3 7-.1 10.5-.1h34.8c4 0 4.3.4 4.3 4.3v88.6c.1 1.1.3 2.1-.5 3.2zm57.8-86.3c-6.6 11.4-13.2 22.7-19.8 34.1-9.6 16.5-19.2 32.9-28.7 49.4-.5.9-1.2 1.8-2 3-.9-1.8-.7-3-.7-4.2V83.2c0-5.3.1-5.4 5.2-5.4h39.4c2.1 0 4.2 0 5.9 1.5 2.4 2 2.6 4.9.7 8.3z" stroke="#000" stroke-width="6.627" stroke-miterlimit="10"/></svg>