<svg xmlns="http://www.w3.org/2000/svg" width="334.339" height="174.087"><path d="M181.077.623c-44.971-5.047-75.481 21.052-52.782 62.993s-68.37 91.75 13.338 96.037 210.4-31.388 190.676-77.7S226.052 5.67 181.077.623z" fill="#e3ad62"/><path d="M0 174.087V18.928a141.137 141.137 0 0120.006-4.9 111.474 111.474 0 0118.084-1.535 87.384 87.384 0 0133.181 6.266 81.645 81.645 0 0124.557 15.669A88.949 88.949 0 01112.2 54.807a81.931 81.931 0 018.641 20.4 20.732 20.732 0 01.456 8.306 25.937 25.937 0 01-2.732 8.128c-2.629 5.063-6.975 10.254-13.286 15.871a189.285 189.285 0 01-20.812 15.61c-7.806 5.194-16.473 10.509-24.854 15.65-13.164 8.073-26.775 16.422-38.339 25.024-7.139 5.311-14.3 8.775-21.277 10.3z" fill="#23698c"/></svg>